<svg 
    xmlns="http://www.w3.org/2000/svg" 
    fill-rule="evenodd" 
    stroke-linejoin="round" 
    stroke-miterlimit="2" 
    clip-rule="evenodd" 
    viewBox="0 0 64 64" 
    id="time-and-date">
    <g 
        transform="translate(-2948 -248)">
        <g transform="translate(0 -4)">
            <path 
                d="M2989,261L2989,260C2989,258.896 2989.9,258 2991,258C2992.1,258 2993,258.896 2993,260L2993,261L3000,261C3001.11,261 3002,261.895 3002,263L3002,281.732C3006.76,284.249 3010,289.249 3010,295C3010,303.279 3003.28,310 2995,310C2989.25,310 2984.25,306.756 2981.73,302L2952,302C2950.89,302 2950,301.105 2950,300L2950,263C2950,261.895 2950.89,261 2952,261L2959,261L2959,260C2959,258.896 2959.9,258 2961,258C2962.1,258 2963,258.896 2963,260L2963,261L2969,261L2969,260C2969,258.896 2969.9,258 2971,258C2972.1,258 2973,258.896 2973,260L2973,261L2979,261L2979,260C2979,258.896 2979.9,258 2981,258C2982.1,258 2983,258.896 2983,260L2983,261L2989,261ZM2995,284C3001.07,284 3006,288.929 3006,295C3006,301.071 3001.07,306 2995,306C2988.93,306 2984,301.071 2984,295C2984,288.929 2988.93,284 2995,284ZM2993,289L2993,295C2993,295.53 2993.21,296.039 2993.59,296.414L2996.59,299.414C2997.37,300.195 2998.63,300.195 2999.41,299.414C3000.2,298.634 3000.2,297.366 2999.41,296.586L2997,294.172C2997,294.172 2997,289 2997,289C2997,287.896 2996.1,287 2995,287C2993.9,287 2993,287.896 2993,289ZM2959,265L2954,265C2954,265 2954,298 2954,298L2980.3,298C2980.1,297.031 2980,296.027 2980,295C2980,293.973 2980.1,292.969 2980.3,292L2980,292C2978.9,292 2978,291.104 2978,290C2978,288.896 2978.9,288 2980,288L2981.73,288C2984.25,283.244 2989.25,280 2995,280C2996.03,280 2997.03,280.104 2998,280.301L2998,265L2993,265L2993,266C2993,267.104 2992.1,268 2991,268C2989.9,268 2989,267.104 2989,266L2989,265L2983,265L2983,266C2983,267.104 2982.1,268 2981,268C2979.9,268 2979,267.104 2979,266L2979,265L2973,265L2973,266C2973,267.104 2972.1,268 2971,268C2969.9,268 2969,267.104 2969,266L2969,265L2963,265L2963,266C2963,267.104 2962.1,268 2961,268C2959.9,268 2959,267.104 2959,266L2959,265ZM2960,292L2962,292C2963.1,292 2964,291.104 2964,290C2964,288.896 2963.1,288 2962,288L2960,288C2958.9,288 2958,288.896 2958,290C2958,291.104 2958.9,292 2960,292ZM2970,292L2972,292C2973.1,292 2974,291.104 2974,290C2974,288.896 2973.1,288 2972,288L2970,288C2968.9,288 2968,288.896 2968,290C2968,291.104 2968.9,292 2970,292ZM2960,285L2962,285C2963.1,285 2964,284.104 2964,283C2964,281.896 2963.1,281 2962,281L2960,281C2958.9,281 2958,281.896 2958,283C2958,284.104 2958.9,285 2960,285ZM2970,285L2972,285C2973.1,285 2974,284.104 2974,283C2974,281.896 2973.1,281 2972,281L2970,281C2968.9,281 2968,281.896 2968,283C2968,284.104 2968.9,285 2970,285ZM2980,285L2982,285C2983.1,285 2984,284.104 2984,283C2984,281.896 2983.1,281 2982,281L2980,281C2978.9,281 2978,281.896 2978,283C2978,284.104 2978.9,285 2980,285ZM2970,278L2972,278C2973.1,278 2974,277.104 2974,276C2974,274.896 2973.1,274 2972,274L2970,274C2968.9,274 2968,274.896 2968,276C2968,277.104 2968.9,278 2970,278ZM2980,278L2982,278C2983.1,278 2984,277.104 2984,276C2984,274.896 2983.1,274 2982,274L2980,274C2978.9,274 2978,274.896 2978,276C2978,277.104 2978.9,278 2980,278ZM2990,278L2992,278C2993.1,278 2994,277.104 2994,276C2994,274.896 2993.1,274 2992,274L2990,274C2988.9,274 2988,274.896 2988,276C2988,277.104 2988.9,278 2990,278ZM2960,278L2962,278C2963.1,278 2964,277.104 2964,276C2964,274.896 2963.1,274 2962,274L2960,274C2958.9,274 2958,274.896 2958,276C2958,277.104 2958.9,278 2960,278Z"
                fill="var(--title-color)"
                >
            </path>
        </g>
    </g>
</svg>