<svg 
    xmlns="http://www.w3.org/2000/svg" 
    viewBox="0 0 64 64" 
    id="application-learning">
    <g dataName="Application Learning">
        <path 
            d="M12.81 23.75H7a1 1 0 0 0-1 1v5.81a1 1 0 0 0 1 1h5.81a1 1 0 0 0 1-1V24.75A1 1 0 0 0 12.81 23.75zm-1 5.81H8V25.75h3.81zM12.81 34.54H7a1 1 0 0 0-1 1v5.81a1 1 0 0 0 1 1h5.81a1 1 0 0 0 1-1V35.54A1 1 0 0 0 12.81 34.54zm-1 5.81H8V36.54h3.81zM12.81 44.51H7a1 1 0 0 0-1 1v5.81a1 1 0 0 0 1 1h5.81a1 1 0 0 0 1-1V45.51A1 1 0 0 0 12.81 44.51zm-1 5.81H8V46.51h3.81zM20 25.56L18 27.62 17.3 27a1 1 0 0 0-1.42 0 1 1 0 0 0 0 1.41l1.39 1.38a1 1 0 0 0 1.41 0L21.45 27a1 1 0 0 0 0-1.42A1 1 0 0 0 20 25.56zM20 36.36L18 38.42l-.67-.68a1 1 0 0 0-1.42 1.42l1.39 1.38a1 1 0 0 0 1.41 0l2.77-2.77A1 1 0 1 0 20 36.36zM20 46.32L18 48.38l-.67-.67a1 1 0 0 0-1.42 0 1 1 0 0 0 0 1.41l1.39 1.38a1 1 0 0 0 1.41 0l2.77-2.76a1 1 0 0 0 0-1.42A1 1 0 0 0 20 46.32zM36.28 27.07H24.66a1 1 0 0 0 0 2H36.28a1 1 0 0 0 0-2zM36.28 37.86H24.66a1 1 0 1 0 0 2H36.28a1 1 0 0 0 0-2zM36.28 47.83H24.66a1 1 0 1 0 0 2H36.28a1 1 0 0 0 0-2z"
            fill="var(--title-color)"
            >
        </path>
        <path 
            d="M62,10.56H2a1,1,0,0,0-1,1V56.51a1,1,0,0,0,1,1H62a1,1,0,0,0,1-1V11.56A1,1,0,0,0,62,10.56Zm-1,2V19H3V12.56ZM3,55.51V21H61V55.51Z"
            fill="var(--title-color)"
            >
        </path>
        <path 
            d="M57 24H41a1 1 0 0 0-1 1V51a1 1 0 0 0 1 1H57a1 1 0 0 0 1-1V25A1 1 0 0 0 57 24zM56 50H42V26H56zM5.67 16.88h7.6a1 1 0 0 0 0-2H5.67a1 1 0 1 0 0 2z"
            fill="var(--title-color)"
            >
        </path>
        <path 
            d="M47.15,48.05h0l3.7,0a1,1,0,0,0,0-2h0l-3.7,0a1,1,0,0,0,0,2Z"
            fill="var(--title-color)"
            >
        </path>
    </g>
</svg>